<svg xmlns="http://www.w3.org/2000/svg" width="920" height="360" viewBox="0 0 920 360">
<rect width="100%" height="100%" fill="#ffffff"/>
<text x="18" y="34" font-size="22" font-family="Arial" fill="#172026">Churn Rate by Order Recency</text>
<g font-family="Arial"><text x="16" y="80" font-size="14" fill="#263238">0-30</text><rect x="230" y="58" width="79.6" height="28" fill="#2a9d8f" rx="3"/><text x="317.58408492463354" y="78" font-size="13" fill="#263238">11.7%</text><text x="16" y="123" font-size="14" fill="#263238">31-60</text><rect x="230" y="101" width="206.1" height="28" fill="#e76f51" rx="3"/><text x="444.1369088698281" y="121" font-size="13" fill="#263238">30.4%</text><text x="16" y="166" font-size="14" fill="#263238">61-90</text><rect x="230" y="144" width="310.1" height="28" fill="#577590" rx="3"/><text x="548.0746718053715" y="164" font-size="13" fill="#263238">45.7%</text><text x="16" y="209" font-size="14" fill="#263238">91-120</text><rect x="230" y="187" width="443.6" height="28" fill="#f4a261" rx="3"/><text x="681.5730211817169" y="207" font-size="13" fill="#263238">65.4%</text><text x="16" y="252" font-size="14" fill="#263238">121-180</text><rect x="230" y="230" width="592.4" height="28" fill="#287271" rx="3"/><text x="830.4370184053979" y="250" font-size="13" fill="#263238">87.3%</text><text x="16" y="295" font-size="14" fill="#263238">181+</text><rect x="230" y="273" width="620.0" height="28" fill="#b56576" rx="3"/><text x="858.0" y="293" font-size="13" fill="#263238">91.4%</text></g>
</svg>