<svg xmlns="http://www.w3.org/2000/svg" width="920" height="360" viewBox="0 0 920 360">
<rect width="100%" height="100%" fill="#ffffff"/>
<text x="18" y="34" font-size="22" font-family="Arial" fill="#172026">Churn Rate by Acquisition Channel</text>
<g font-family="Arial"><text x="16" y="80" font-size="14" fill="#263238">Google Search</text><rect x="230" y="58" width="620.0" height="28" fill="#2a9d8f" rx="3"/><text x="858.0" y="78" font-size="13" fill="#263238">50.4%</text><text x="16" y="123" font-size="14" fill="#263238">Instagram</text><rect x="230" y="101" width="613.5" height="28" fill="#e76f51" rx="3"/><text x="851.5343841310342" y="121" font-size="13" fill="#263238">49.9%</text><text x="16" y="166" font-size="14" fill="#263238">Marketplace</text><rect x="230" y="144" width="603.9" height="28" fill="#577590" rx="3"/><text x="841.9387831280328" y="164" font-size="13" fill="#263238">49.1%</text><text x="16" y="209" font-size="14" fill="#263238">Influencer</text><rect x="230" y="187" width="585.5" height="28" fill="#f4a261" rx="3"/><text x="823.4508611955421" y="207" font-size="13" fill="#263238">47.6%</text><text x="16" y="252" font-size="14" fill="#263238">Referral</text><rect x="230" y="230" width="518.5" height="28" fill="#287271" rx="3"/><text x="756.4788308618096" y="250" font-size="13" fill="#263238">42.2%</text><text x="16" y="295" font-size="14" fill="#263238">Organic</text><rect x="230" y="273" width="489.6" height="28" fill="#b56576" rx="3"/><text x="727.5701363230985" y="293" font-size="13" fill="#263238">39.8%</text></g>
</svg>